<svg width="46" height="53" viewBox="0 0 46 53" fill="none" xmlns="http://www.w3.org/2000/svg">
<mask id="path-1-outside-1_1_3" maskUnits="userSpaceOnUse" x="-1" y="-1" width="48" height="55" fill="black">
<rect fill="white" x="-1" y="-1" width="48" height="55"/>
<path d="M7.36 52.648C5.296 52.408 3.664 51.688 2.464 50.488C1.312 49.288 0.736 47.776 0.736 45.952C0.736 44.56 1.072 43.12 1.744 41.632L18.232 4.12C19.144 2.008 20.728 0.951996 22.984 0.951996C25.192 0.951996 26.752 2.008 27.664 4.12L44.152 41.632C44.824 43.216 45.16 44.656 45.16 45.952C45.16 47.776 44.56 49.288 43.36 50.488C42.208 51.688 40.576 52.408 38.464 52.648L32.416 38.968H13.48L7.36 52.648ZM29.464 30.76L21.544 11.032L20.68 11.392L22.408 15.856L16.36 30.76H29.464Z"/>
</mask>
<path d="M7.36 52.648L7.22833 53.7804L8.05908 53.877L8.40061 53.1135L7.36 52.648ZM2.464 50.488L1.64162 51.2775L1.64967 51.2859L1.6579 51.2941L2.464 50.488ZM1.744 41.632L2.78302 42.1012L2.78764 42.0907L1.744 41.632ZM18.232 4.12L19.2757 4.57873L19.2786 4.57194L18.232 4.12ZM27.664 4.12L26.6174 4.57195L26.6204 4.57872L27.664 4.12ZM44.152 41.632L45.2015 41.1868L45.1986 41.18L45.1956 41.1733L44.152 41.632ZM43.36 50.488L42.5539 49.6819L42.5457 49.6901L42.5376 49.6985L43.36 50.488ZM38.464 52.648L37.4214 53.109L37.7602 53.8753L38.5927 53.7807L38.464 52.648ZM32.416 38.968L33.4586 38.507L33.1584 37.828H32.416V38.968ZM13.48 38.968V37.828H12.7411L12.4394 38.5025L13.48 38.968ZM29.464 30.76V31.9H31.1501L30.5219 30.3353L29.464 30.76ZM21.544 11.032L22.6019 10.6073L22.1716 9.53548L21.1055 9.97969L21.544 11.032ZM20.68 11.392L20.2415 10.3397L19.2157 10.7671L19.6169 11.8035L20.68 11.392ZM22.408 15.856L23.4643 16.2847L23.6343 15.8659L23.4711 15.4445L22.408 15.856ZM16.36 30.76L15.3037 30.3313L14.6671 31.9H16.36V30.76ZM7.49167 51.5156C5.62391 51.2984 4.25056 50.6624 3.2701 49.6819L1.6579 51.2941C3.07744 52.7136 4.96809 53.5176 7.22833 53.7804L7.49167 51.5156ZM3.28638 49.6985C2.35872 48.7322 1.876 47.5127 1.876 45.952H-0.404C-0.404 48.0393 0.265285 49.8438 1.64162 51.2775L3.28638 49.6985ZM1.876 45.952C1.876 44.7474 2.16616 43.467 2.78296 42.1012L0.705038 41.1628C-0.0221563 42.773 -0.404 44.3726 -0.404 45.952H1.876ZM2.78764 42.0907L19.2756 4.57872L17.1884 3.66128L0.700364 41.1733L2.78764 42.0907ZM19.2786 4.57194C19.6657 3.67546 20.1625 3.07508 20.7364 2.69253C21.3087 2.311 22.0386 2.092 22.984 2.092V-0.188004C21.6734 -0.188004 20.4833 0.120991 19.4716 0.79546C18.4615 1.46892 17.7103 2.45253 17.1854 3.66806L19.2786 4.57194ZM22.984 2.092C23.9003 2.092 24.6103 2.30853 25.171 2.68804C25.7348 3.0697 26.2284 3.67112 26.6174 4.57194L28.7106 3.66806C28.1876 2.45688 27.4452 1.4743 26.449 0.799952C25.4497 0.123461 24.2757 -0.188004 22.984 -0.188004V2.092ZM26.6204 4.57872L43.1084 42.0907L45.1956 41.1733L28.7076 3.66128L26.6204 4.57872ZM43.1025 42.0772C43.7333 43.5641 44.02 44.8502 44.02 45.952H46.3C46.3 44.4618 45.9147 42.8679 45.2015 41.1868L43.1025 42.0772ZM44.02 45.952C44.02 47.4987 43.5231 48.7127 42.5539 49.6819L44.1661 51.2941C45.597 49.8633 46.3 48.0533 46.3 45.952H44.02ZM42.5376 49.6985C41.616 50.6586 40.258 51.2968 38.3353 51.5153L38.5927 53.7807C40.894 53.5192 42.8001 52.7174 44.1824 51.2775L42.5376 49.6985ZM39.5067 52.187L33.4586 38.507L31.3734 39.429L37.4214 53.109L39.5067 52.187ZM32.416 37.828H13.48V40.108H32.416V37.828ZM12.4394 38.5025L6.31939 52.1825L8.40061 53.1135L14.5206 39.4335L12.4394 38.5025ZM30.5219 30.3353L22.6019 10.6073L20.4861 11.4567L28.4061 31.1847L30.5219 30.3353ZM21.1055 9.97969L20.2415 10.3397L21.1185 12.4443L21.9825 12.0843L21.1055 9.97969ZM19.6169 11.8035L21.3449 16.2675L23.4711 15.4445L21.7431 10.9805L19.6169 11.8035ZM21.3517 15.4273L15.3037 30.3313L17.4163 31.1887L23.4643 16.2847L21.3517 15.4273ZM16.36 31.9H29.464V29.62H16.36V31.9Z" fill="#F0F0F0" mask="url(#path-1-outside-1_1_3)"/>
</svg>
